/* XPM */
static char *be0cd6f9000c4511f7485625e53cfa1dxDpLy9mqTjxT1SBZ[] = {
/* columns rows colors chars-per-pixel */
"63 64 27 1 ",
"  c None",
". c #370000",
"X c #3E1200",
"o c #372E00",
"O c #530000",
"+ c #5E0000",
"@ c #6B0000",
"# c #592C00",
"$ c #534500",
"% c #5E4E00",
"& c #754800",
"* c #6B5900",
"= c #830000",
"- c #9D0000",
"; c #B50000",
": c #CF0000",
"> c #836D00",
", c #926400",
"< c #9D8300",
"1 c #AD8100",
"2 c #B59700",
"3 c #CA9C00",
"4 c #CFAC00",
"5 c #D8AA00",
"6 c #E3B900",
"7 c #F2DF04",
"8 c #FFFF08",
/* pixels */
"                                                               ",
" &&&&    &&        &&    &&&&    &&&&    &&        &&    &&&&  ",
" &755@@@@55@@@@@@@@55@@@@755&    &755****55********55****755&  ",
" &766@---66@-------66@---766,    &766*<<<66*<<<<<<<66*<<<766,  ",
" ,888=;;;88=;;;;;;;88=;;;888,    ,888>22288>222222288>222888,  ",
" ,877=:::55=:::::::55=:::877,    ,877>44455>444444455>444877,  ",
" ,88888888888888888888888888,    ,88888888888888888888888888,  ",
" ,83888888388888888388888838,    ,83888888388888888388888838,  ",
" ,87777777777777777777777877&    ,87777777777777777777777877&  ",
" ,877&&,155&&,,,,1155&&,1877&    ,877&&,155&&,,,,1155&&,1877&  ",
" &877=:::77=:::::::77=:::877&    &877>44477>444444477>444877&  ",
" &766=:::66=:::::::66=:::766&    &766>44466>444444466>444766&  ",
" &755=;;;55=;;;;;;;55=;;;755&    &755>22255>222222255>222755&  ",
" &766@;;;66@;;;;;;;66@;;;766&    &766*22266*222222266*222766&  ",
" #755@---55@-------55@---755#    #755*<<<55*<<<<<<<55*<<<755#  ",
" #755@===55@=======55@===755#    #755*>>>55*>>>>>>>55*>>>755#  ",
" #755,57711,5,,,,7711,577755#    #755,57711,5,,,,7711,577755#  ",
" #6&33333333,7777#,3333333&3#    #6&33333333,7777#,3333333&3#  ",
" #633333333,733337#,33333333#    #633333333,733337#,33333333#  ",
" X#########73#X##37X########X    X#########73#X##37X########X  ",
" X3,,,,,,,X31,XX,1,X&,,,,,,&X    X3,,,,,,,X31,XX,1,X&,,,,,,&X  ",
" X6&111111&X,1X#1,X&111111#&X    X6&111111&X,1X#1,X&111111#&X  ",
" X633OOOO,,OX,,,,XO,,OOOO31&X    X633$$$$,,$X,,,,X$,,$$$$31&X  ",
" X633O@@@63OOXXXXO@63O@@@61&X    X633$***63$$XXXX$*63$***61&X  ",
" X633O@@@63O@OOOO@@63O@@@61&X    X633$***63$*$$$$**63$***61&X  ",
" X611O+++61O+++++++61O+++61&X    X611$%%%61$%%%%%%%61$%%%61&X  ",
" X611O+++61O+++++++61O+++31&X    X611$%%%61$%%%%%%%61$%%%31&X  ",
" X611,36611,333366611,3361,&X    X611,36611,333366611,3361,&X  ",
" X6#,,,,,,#,,,,,,,,#,,,,,,#&X    X6#,,,,,,#,,,,,,,,#,,,,,,#&X  ",
" XXXXXXXXXXXXXXXXXXXXXXXXXXXX    XXXXXXXXXXXXXXXXXXXXXXXXXXXX  ",
"                                                               ",
" ############&&&&############    ############&&&&############  ",
" #7&6666666#166661#1666666&6#    #7&6666666#166661#1666666&6#  ",
" #77777777716,,,,6,177777777#    #77777777716,,,,6,177777777#  ",
" ##########871XX16,##########    ##########871XX16,##########  ",
" XXXXXXXXXXX68888,XXXXXXXXXXX    XXXXXXXXXXX68888,XXXXXXXXXXX  ",
" XXXXXXXXXXXXXXXXXXXXXXXXXXXX    XXXXXXXXXXXXXXXXXXXXXXXXXXXX  ",
" &&&&&&&&&&&&&&&&&&&&&&&&&&&#    &&&&&&&&&&&&&&&&&&&&&&&&&&&#  ",
" &,,,,,,,,,,,,,,,,,,,,,,,,,,#    &,,,,,,,,,,,,,,,,,,,,,,,,,,#  ",
" &55,13333333333333333333155#    &55,13333333333333333333155#  ",
" &75,11111111111111111111165#    &75,11111111111111111111165#  ",
" &87.OOOOOOOOOOOOOO+++++++66#    &87o$$$$$$$$$$$$$$%%%%%%%66#  ",
" &87.OOOOOOO+++++++@@@=@==76#    &87o$$$$$$$%%%%%%%***>*>>76#  ",
" &87..OOOOOOO+++++++@@@@@=76#    &87oo$$$$$$$%%%%%%%*****>76#  ",
" &87...OOOOOOO+++++++@@@@@76#    &87ooo$$$$$$$%%%%%%%*****76#  ",
" &87....OOOOOOO+++++++@@@@76#    &87oooo$$$$$$$%%%%%%%****76#  ",
" &87.....OOOOOOO+++++++@@@76#    &87ooooo$$$$$$$%%%%%%%***76#  ",
" &87......................76#    &87oooooooooooooooooooooo76#  ",
" &87......................76#    &87oooooooooooooooooooooo76#  ",
" &87......................76#    &87oooooooooooooooooooooo76#  ",
" &87666666666777766666666676#    &87666666666777766666666676#  ",
" &88888878777333377888877776#    &88888878777333377888877776#  ",
" X3333333331#1##1,633333333&X    X3333333331#1##1,633333333&X  ",
" X6&333333331#11,633333333#&X    X6&333333331#11,633333333#&X  ",
" X633OOOO,,OOOOOOOO,,OOOO31&X    X633$$$$,,$$$$$$$$,,$$$$31&X  ",
" X633O@@@63O@@@@@@@63O@@@61&X    X633$***63$*******63$***61&X  ",
" X633O@@@63O@@@@@@@63O@@@61&X    X633$***63$*******63$***61&X  ",
" X611O+++61O+++++++61O+++61&X    X611$%%%61$%%%%%%%61$%%%61&X  ",
" X611O+++61O+++++++61O+++31&X    X611$%%%61$%%%%%%%61$%%%31&X  ",
" X611,36611,333366611,3361,&X    X611,36611,333366611,3361,&X  ",
" X6#,,,,,,#,,,,,,,,#,,,,,,#&X    X6#,,,,,,#,,,,,,,,#,,,,,,#&X  ",
" XXXXXXXXXXXXXXXXXXXXXXXXXXXX    XXXXXXXXXXXXXXXXXXXXXXXXXXXX  ",
"                                                               ",
"                                                               "
};
