/* XPM */
static char *b2c3be19ae5546fe8941511bb5786df3YzwUdIwVOvEloP69[] = {
/* columns rows colors chars-per-pixel */
"32 28 11 1 ",
"  c None",
". c #381A08",
"X c #20141A",
"o c #66451E",
"O c #533A46",
"+ c #664C50",
"@ c #ED931E",
"# c #F2B22B",
"$ c #F8D239",
"% c #FFF59A",
"& c white",
/* pixels */
"O+++++++++++++++&..%$$#o.&+++OX ",
"O++++++++++++++&o@%%$$#@%.&++OX ",
"O+++++++++++++&.#@%%..#@%o.&+OX ",
"O+++++++++++++&.#@%o&&.@%%$.&OX ",
"O++++++++++++&.$#@o&+&.@%%$o&OX ",
"O++++++++++++&.$#@.&+&o..%$$o&X ",
"O++++++++++++&.$#@.&++&&&.$$.&X ",
"O++++++++++++&.$#@.&++++&o$$.&X ",
"O++++++++++++&o$#@o&&&&&o%$$.&X ",
"O+++++++++++++&o#@%o....%%$.&OX ",
"O+++++++++++++&.#@%%$$#@%%$.&OX ",
"O++++++++++++&.##@%%$$#@%%o&+OX ",
"O+++++++++++&.%$#.o%$$#@oo&++OX ",
"O++++++++++&.%%$.&&o....&&+++OX ",
"O+++++++++&.@%%.&++&&&&&+++++OX ",
"O++++++++&.#@%.&+++++++++++++OX ",
"O+++++++&.%#@.&++++++++++++++OX ",
"O++++++&.%%#$.&++++++++++++++OX ",
"O+++++&.@%%.#$.&+++++++++++++OX ",
"O++++&.#@%.&.#$.&++++++++++++OX ",
"O+++&.##@%%.&..o&++++++++++++OX ",
"O++&.#$#..$%.&&&+++++++++++++OX ",
"O+&.%$$.&&.$%.&++++++++++++++OX ",
"O&.@%$$.&+&..o&++++++++++++++OX ",
"&.#@..#$.&+&&&+++++++++++++++OX ",
"&o..&&.#$.&++++++++++++++++++OX ",
"O&&&++&.#$.&+++++++++++++++++OX ",
"OOOOOOO&..o&OOOOOOOOOOOOOOOOOOX "
};
