/* XPM */
static char *c2b72c07b0464ed2de48aebf5efcc694VYrfkK8vnDAP4AiZ[] = {
/* columns rows colors chars-per-pixel */
"64 64 8 1 ",
"  c None",
". c #161412",
"X c #1B211B",
"o c #28211F",
"O c #393132",
"+ c #4C3F3B",
"@ c #5D5F4F",
"# c #9C9D80",
/* pixels */
"                                   o+o                          ",
"                                  .++.                          ",
"                                 .+@O.                          ",
"                                 .+@Oo.                         ",
"                                 o@#Oo+.                        ",
"                    oo           o@#OO++.                       ",
"                   o@@o          o@@OOo+.                       ",
"                   o@@o         o@@+oOo+.                       ",
"                  o#@@@o        +@@+oooo..                      ",
"                 oo#@@@+o      ooo+++oo.O.                      ",
"                o+##@+oo.     o@+ooo...oO.                      ",
"                o@##@OOo+.    o@@#OOOOOoO.                      ",
"               o@##@@OOo++.   .@##@+OOoooo.                     ",
"               o+#@@+OOOo++. .++#@++OOooooo.                    ",
"               o+#@@++OOOo+..+++@+++OOoooo...                   ",
"              o+++@@++OOOo++...oo+++OOooooooo.                  ",
"              o++@@++OO.oo++.+@@+ooOOoo@@@@@@oooo               ",
"               o+++++Oo.oo..+o@#@+ooo@@@@@@@@@@@@o              ",
"              o+ooooo......o+o+#oo@@@@@@@@@@@#@@@o              ",
"             o@+@@@@ooo..ooooOoo#@@@@@@@@@@@##@@o.              ",
"             o+@@@@@@@@@@ooooOoo##@@@@@@@@###@@O+.              ",
"            o+#####@@##OOOooooOo###@@@@@@###@@OO+.              ",
"            o+@######@@OOOooooo+++###@@@###@@OOo++.             ",
"            o++@@++++++OOOOoOoo+@@+###@@@##@OOoo++.             ",
"            o++@@++++++OOOooOoo+@@@+####@@@OOooo++.             ",
"            o++@@++++++OOOoOOOo+##@++@###@@OOooO++.             ",
"            o++@@++++++OOOooOOo+##@+++@##@OOoooOO+.             ",
"           o@o++@+++++OOOOooo.++##@+++@#OOOoooooO++.            ",
"          o+@oooo+++++OOOOooo.++@#@+++@#OOOoooooOO+.            ",
"         o++@@##oooo+OOOOOo...++@#@+++@OOOOoooooOO+.            ",
"         o@@@@##@@@oooo.....o.+++@@++++OOOOoooooOO+..           ",
"         o++@###@@@+++++OOOO.++++@@++++OOOO..oooOoo..           ",
"         .++@##@@++++OOOOooo.oo++++++++OOOO.oo.ooo...           ",
"         .+++@#@@@++++OOOOoo.@ooo+++++OOOOO.oo..o..o.           ",
"         .+++@#@@@@@@+++OOOo+@@@@ooooo.oOOO.......+o.           ",
"        ...++@@@+++@@@@@++Oo++@@@@@@@@.ooOO...Oooo++.           ",
"       .@@ooo+++++++++@++Oo++@@###@+++.......Ooooo++..          ",
"     XX.+@@@@ooo+++++++OOo+++@###@++++.oooooOOoooo++o.          ",
"      .+++@@@#@ooooo+++OOo+++@##@++++OooooOOOooooO++o.          ",
"     X.++++@##@@@....++OOo+++@###++++OOOOOOOoooooO+++.          ",
"  XXXo+++++##@@++@.......o++++@#@@+++OOOOOOOoooooOO++.          ",
"  XXXo++++@##@@+++@oooooo+++++@@@@+++OOOOOOOOoooooOO+.          ",
"   XXo++++###++++++++oo+o+++++@@@@++++OOOOOOOoo.ooOO+..         ",
"   XXo+++@#@@++++++++++o+++++@@@+++++++OOOOOooo.ooOO+o.         ",
"    XXoo+@@@++++++++OOO.+++++@@@++++O+++OOOOOoo.ooOOoo.         ",
"   XXXXoo+++++++++++OO.++++++@@@++++OO++OOOOOoo..oooo...        ",
"  XXXXXXoo+++++++++OO.+++++++@@++++++OOoOOOOOooo..oo..oo        ",
"     XXXXoo+++++++++O.++++++++++++++++OoOOOOOoooo...oo+o.       ",
"       XXXXoo+++++++O....oo+++++++++++ooOOOOooo...ooo++o.       ",
"        XXXXXo...+++o++@@@ooo+++++++++ooOOOO...O..ooo++o.XXXXX  ",
"X        XXXXXXX..XXo@@@@@@++oooo+++ooo......OOO.oooOO++o.XXXXX ",
"          XXXXXXXXXXo+@@@####+++ooooo++++OOOOOOO.oooOOO+oo.XX   ",
"               XXXXXo++@@@####@@@@++++OOOOOOOOo..ooOOOO+oo.XX   ",
"X                 XXo++++######@@@@@@+OOOOOOooo..ooOOOOo.o.XXXXX",
"X                 Xo+++++@@#####@++++++OOOOOoooo.ooOoooo.o.XXXX ",
"                 XXo++++@@####@@++++O++OOOOOoooo.ooooo...o.XXX  ",
"               XXX.+++++@@###@@++++OO++OOOOOooooooooo..ooo.X    ",
"               XXX.+++++@@##@@++++OOOO+OOOOO.ooooooo..oooo.XX   ",
"                XXX..+++@@#@@+++++OOOO+OOOOO..ooooooooooo..XX   ",
"                 XXX.....++++++++++++O+OOOOO....ooooooo...XX    ",
"                 XXXXXXX..oooo+++++++++oOOOO..ooooooo...XXX     ",
"                    XXXXXXXXXoooooo+oooooOOOO.ooooo...XXXX      ",
"                      XXXXXXXXXXXXoo.....oooo.......XXXXXXXXXX  ",
"                                 XXXXXX..........XXXXX  XXX     "
};
