/* XPM */
static char *_eb7745eedac43d9d171b34c8a849428u5gIeHyAiKIyNxl7[] = {
/* columns rows colors chars-per-pixel */
"32 32 8 1 ",
"  c None",
". c #161412",
"X c #1B211B",
"o c #28211F",
"O c #393132",
"+ c #4C3F3B",
"@ c #5D5F4F",
"# c #9C9D80",
/* pixels */
"                                ",
"                                ",
"                o               ",
"               o+o              ",
"              .++.              ",
"             .+@O.              ",
"             .+@Oo.             ",
"             o@#Oo+.            ",
"             o@#OO++.           ",
"             o@@OOo+.           ",
"            o@@+oOo+.           ",
"            +@@+oooo..          ",
"           ooo+++oo.O.          ",
"          o@+ooo...oO.          ",
"          o@@#OOOOOoO.          ",
"          .@##@+OOoooo.         ",
"         .++#@++OOooooo.        ",
"       X.+++@+++OOoooo...       ",
"     XXX...oo+++OOoo...Oo.      ",
"     XXX.+@@+ooOO....ooOo.      ",
"      X.++@#@+oooO..OooOo.XXX   ",
"   XXXX.+++#@++OOOOOOoooo.XX    ",
"     X..OO+@@+++OOOOooo..XX     ",
"     XooOOOOO+++OOoooo..X       ",
"      Xoooo..OOOOOoooo.XXX      ",
"    XXXXXXXXX.........XXXXXX    ",
"          XXXXXXXXXX            ",
"                                ",
"                                ",
"                                ",
"                                ",
"                                "
};
