/* XPM */
static char *_ff7d6305cc6414bf9d4f0744a0b1d543zXucKFE2TOFHdBo[] = {
/* columns rows colors chars-per-pixel */
"64 64 237 2 ",
"   c None",
".  c #010201",
"X  c #02040A",
"o  c #0A060B",
"O  c #040B0C",
"+  c #0C0C0D",
"@  c #090804",
"#  c #100300",
"$  c #130C0C",
"%  c #1B0B0C",
"&  c #1D0502",
"*  c #0C120D",
"=  c #0B190C",
"-  c #14110E",
";  c #0C0D13",
":  c #080B14",
">  c #110D12",
",  c #1A0E14",
"<  c #0D1314",
"1  c #0D131B",
"2  c #0C191B",
"3  c #061418",
"4  c #141315",
"5  c #1D1415",
"6  c #13151B",
"7  c #1A161A",
"8  c #151B1D",
"9  c #1A1A1C",
"0  c #161916",
"q  c #2A0A0A",
"w  c #340E0E",
"e  c #250E14",
"r  c #231414",
"t  c #24141B",
"y  c #291819",
"u  c #33161A",
"i  c #391719",
"p  c #2F110E",
"a  c #1A241E",
"s  c #14261A",
"d  c #01201B",
"f  c #081822",
"g  c #141622",
"h  c #161A24",
"j  c #1B1C23",
"k  c #1B1C2A",
"l  c #17182B",
"z  c #1C1C37",
"x  c #0E0824",
"c  c #231D23",
"v  c #2B1D24",
"b  c #201E2C",
"n  c #2C1A27",
"m  c #381D23",
"M  c #221D36",
"N  c #162323",
"B  c #1C2325",
"V  c #1D2C25",
"C  c #1D222B",
"Z  c #1E2C2A",
"A  c #12232C",
"S  c #1C2335",
"D  c #172335",
"F  c #1E302B",
"G  c #232324",
"H  c #24242C",
"J  c #242B2C",
"K  c #292629",
"L  c #382528",
"P  c #26332E",
"I  c #232433",
"U  c #252B33",
"Y  c #2A2C33",
"T  c #25243B",
"R  c #2A243B",
"E  c #252A3B",
"W  c #2B2B3C",
"Q  c #2B2633",
"!  c #352A38",
"~  c #263432",
"^  c #2A3234",
"/  c #2C333C",
"(  c #293A37",
")  c #323234",
"_  c #33343B",
"`  c #323C3E",
"'  c #3A373E",
"]  c #581A0D",
"[  c #431A1B",
"{  c #491617",
"}  c #4A0008",
"|  c #73050E",
" . c #670D19",
".. c #780A16",
"X. c #671319",
"o. c #680004",
"O. c #552019",
"+. c #67231E",
"@. c #4B1E24",
"#. c #451A24",
"$. c #531C21",
"%. c #472427",
"&. c #53242C",
"*. c #582432",
"=. c #462C35",
"-. c #662425",
";. c #6C3232",
":. c #2B433C",
">. c #32433C",
",. c #37483A",
"<. c #76403B",
"1. c #2C2C43",
"2. c #2E2A4B",
"3. c #2B2843",
"4. c #332D42",
"5. c #362C4C",
"6. c #293544",
"7. c #333243",
"8. c #333A45",
"9. c #33334C",
"0. c #3D3D4D",
"q. c #3B3846",
"w. c #392D53",
"e. c #2A3B56",
"r. c #333452",
"t. c #3A3554",
"y. c #3C3C53",
"u. c #3D3C5C",
"i. c #363758",
"p. c #3C3B65",
"a. c #432B44",
"s. c #413B4B",
"d. c #423D5C",
"f. c #413553",
"g. c #4E3452",
"h. c #463D65",
"j. c #523F65",
"k. c #753558",
"l. c #3D434E",
"z. c #364944",
"x. c #3B5348",
"c. c #3D4254",
"v. c #3F425D",
"b. c #2B5243",
"n. c #444947",
"m. c #465546",
"M. c #434353",
"N. c #43425C",
"B. c #494556",
"V. c #4B535C",
"C. c #585558",
"Z. c #504C53",
"A. c #4A6C5A",
"S. c #464963",
"D. c #4B4C64",
"F. c #4A456D",
"G. c #4D4C6C",
"H. c #454466",
"J. c #4E546A",
"K. c #54526B",
"L. c #565A67",
"P. c #4C4973",
"I. c #474676",
"U. c #524C76",
"Y. c #545374",
"T. c #5C5576",
"R. c #5D557E",
"E. c #595979",
"W. c #524D64",
"Q. c #765763",
"!. c #625D7E",
"~. c #615D65",
"^. c #58637C",
"/. c #5F636E",
"(. c #666369",
"). c #676777",
"_. c #797677",
"`. c #727071",
"'. c #685248",
"]. c #8B0208",
"[. c #950410",
"{. c #AB0912",
"}. c #903334",
"|. c #A52E27",
" X c #AC354B",
".X c #BD4056",
"XX c #827A7D",
"oX c #977C76",
"OX c #B86075",
"+X c #F55276",
"@X c #5A5485",
"#X c #4D4C86",
"$X c #665C86",
"%X c #675E95",
"&X c #5D6485",
"*X c #66638C",
"=X c #6B6B8D",
"-X c #666785",
";X c #72748A",
":X c #6B6B90",
">X c #736C94",
",X c #796D99",
"<X c #797699",
"1X c #6A7291",
"2X c #7679A3",
"3X c #925782",
"4X c #82779E",
"5X c #8478A9",
"6X c #7B819B",
"7X c #7B8584",
"8X c #7F85A7",
"9X c #898486",
"0X c #999698",
"qX c #909492",
"wX c #A49695",
"eX c #8585AB",
"rX c #8A88A9",
"tX c #9699A9",
"yX c #9794BA",
"uX c #8B90B0",
"iX c #A49BBA",
"pX c #9FA8B9",
"aX c #AEABAB",
"sX c #B3B2B8",
"dX c #C1B6BC",
"fX c #9B9AC9",
"gX c #A49CC5",
"hX c #A4A3C4",
"jX c #ADACCC",
"kX c #B3ACD8",
"lX c #BBB7D8",
"zX c #BDB6E7",
"xX c #C1C6DB",
"cX c #CCC4ED",
"vX c #DACFFC",
"bX c #D4D4F2",
"nX c #F1F2FF",
/* pixels */
"                                                                                                                                ",
"                                    `.wX    9XwX_.  XXsX0X        9X                                                            ",
"                                    9XaX0X0XaX0X4X~.(.C.C.Z.Z.(.0XwX`.Z.                                                        ",
"                                _.dXqX9X9X9X`.8.J I k g g k l k ! Q.qX`.C.9X                                                    ",
"                                C._.XXtX0Xl.z z U Y W W 7.7.7.6.6.k.OX7X9XwXC.                                                  ",
"                                  K Y pXsXW.E j W E C B N h l ! e.OX+XwXtXXXC.                                                  ",
"                _ ` q.            9 c k V.L.L.L.q.E M.q.U H B n $.[.{.oXqX9X`.C.                                                ",
"                Y K 0.fXzXlXiX;Xz.< . . = V ` L.V.q.M.M.L.L.L.A x o.{.XXqX9XXXC.                                                ",
"                  4 H I.#X2XkXvXvXhXL.C . . . = P ` Y 4 Q 7.0.l.A X } Q._.(.C.P F                                               ",
"                  Z X W I.I.I.2XgXcXcXhXuX).j @ . O ~ n.c o ; V./.6.f 4.C.s.P P >.                                              ",
"                    9 + 1.H.I.I.P.$XE.>XlXbXhX-X_ + . = x.G . C U K ^ q.) a Z                                                   ",
"                      H 1 k 2.p.I.P.@X,XT.Y.gXnXnXlX_.l.N m.Z.+ o ; 9 ) 8 V                                                     ",
"                          C 2 A 2.i.I.U.U.$X4XyXxXbXkXjX$XK m.7 1 1 $ - s ^                                                     ",
"                              , 3 f S i.p.F.I.P.U.<X,X!.4X$X6 . ; > - 5 8 W 8.                                                  ",
"                            ].| { i 7 g T w.h.F.h.$X4XR.<XtX4X^ # p 3 r ) x.,.                                                  ",
"                             .| ....X.i : 3 n 4.r.w.>XrXrX<XyXfX) # d G %.x.m.(                                                 ",
"                                ]... . .$.g 6 k t.u.h.>XiX<X5XkXV.p i 8 [ '.A.P             U                                   ",
"                                X....... .Q i.2.r.9.G.uXjXrXfXK.i.V.O.-.}.}.A.x.          E B C                                 ",
"                                  X.].[.#.e.i.p.u.2.R E.yXhX).g *X^.,.+.}. X;.b.z.    / U W / B                                 ",
"                                    O.|  .T l b i.p.4.x y.uXF.@X5X1XA.L { |.}.Z x.  8.8.8./ E U                                 ",
"                                        #.n X . 7 9.2.R S Y.*Xc.J.).A.V w { m 6 Z / Y 6./ Y ` l.N.                              ",
"                                        6.1.* I H o 3.9.6.2.r.s V ,.m.G e y _ y > B 8 J J 8./ 0.T.                              ",
"                                    I Q E C H =XH.6 < t.2.z 8 P :.z.m.Y _ _ L 5 6 4 j U b Y j 9.                                ",
"                                    T U 0 . c.<X&X7.1 2.M B Z ( >.x.( K q.L i 4 < X f l b j * F.                                ",
"                                  C T U X _ uXeX8Xa 7 3.B s V P ,.x.j K u p i h O : l S ^ 8 h j.                                ",
"                                7 ; G < 7.eXyXyX  * B V >.~ V V :.G { m j L Q I t 1 l J _ U d.d.                                ",
"                              + h l.-Xy.E.8XeX    J K K ` ` >.>.0 q { m C ' 7.W ;.[ A / 8.W r.N.                                ",
"                              2.$X&X1XD.E.<X      ^ J ^ P ~ x.^ & q q > k Z ! K L -.C A C h 3.0.                                ",
"                            @ U.Y.p.J.K.&X        ^ P J V ~ ( 7 # % { i < h Q Q h %.&.@ 1 I t.                                  ",
"                          S ; y.y.t.D.6X=X        ^ J N N ~ N # % % p +.u 8 j 6 6 G ;.w h C l                                   ",
"                  7.4.5.f.f.b B.N.V.D.eXuX^.9.U Z J 8 2 A ~ < . r r & i m k j @ 4 9 ^ g.Q g M                                   ",
"              t.f.5.f.j.h.f.w.d.u.t.4.7.V.<X6XS.6.= 0 3 s * @ & r t , 5 j K K $ 0 a 5 U E T d.                                  ",
"              D.N.q.4.R M l R W M l I R l 7.-X1X@X/ 9 M.c.M.4.=.r y 5 6 8 C Q $ O < - - B 7.                                    ",
"                                  ` h b 3.T l p.&X8XW 8.=X1X2Xe.4 y.8.5 8 B G 4 @ < 6 + 9 a                                     ",
"                                          k T T 6.=XJ.C N.&X<X/ 6 c.y.9 ; G C O O h 1 4 7 4                                     ",
"                                              k W 7.U s.K.-X-XW 9 s.S.n $ 4 ; + @ ; ; 4 7 , 9                                   ",
"                                        <       7 6 7.!.!.-X^.7 G V.v.p $ < a o + + + $ > 7 5                                   ",
"                                      , u @.      g Y.T.Y.D.N.4 H S.i.. <       o + + + > 4 > r                                 ",
"                                      #..X&.X     g I R 9.d.! c v.7.W <           4 $ $ $ + + & @.L                             ",
"                                        c *.#.O = I k 1 9.U.a.a.S.U c 5           5 + + . + e r t %.                            ",
"                                      6 u %.9.S X k h 6 h u.H.F.M.Y K 5         B o O + o $ r n %.$.                            ",
"                                      L  X&.3 r.3.1 A 6 ; k u.U.B._ c.Q         7 X O y #.i m [ q                               ",
"                                        ! *.#.O y.E ; 6 6 6 R R.B.+ W _       ` k + r i u i p #                                 ",
"                                          9 5.D ; g 6 g S h W R.k G K.>       ( ` K y e q + 4 G                                 ",
"                                            B r.E + ; g I j W U.W.4XW..       J j I C G G 4 y                                   ",
"                                                r.E < 1 C C E P.<XgXQ a       g 1 h j j ^ G 9                                   ",
"                                                H k h g l h 2.G.:X5X_         ; ; 8 8 4 B t A                                   ",
"                                                  9 7 6 z 6 1.G.>X$X            U > 4 6 4 7                                     ",
"                                                  J k 6 k I E h.>XT.              P . - - 4                                     ",
"                                                  J l k k k < d.>X-X                4 + 0 4                                     ",
"                                                  B ; j C g : y.,X=X                  > 7 6                                     ",
"                                        J Y       h 6 6 k 7 g y.,X-X                  h 4 6 h                                   ",
"                                          C G     6 1 1 g 7 5.h.:X-X                    + 8 8 B                                 ",
"                                            0 B j g 3 < 6 h t.N.*X!.                    + 1 8 9 k J                             ",
"                                              + < h u + f g W u.*XY.                    4 8 j h j j B C B                       ",
"                                              4 2 L |.i 3 : h u.*XK.                    0 6 0 4 4 j 4 4 0 0 k                   ",
"                                              k l y ] ] ] ; 1 N.*XV.              G j 6 + + 7 G j k C 4 9 N - E                 ",
"                                              h k k v [ @.t 7 N.*Xy.              > 9 8 + 4 I C 6 ; 8 7 > 8 B                   ",
"                                                6 ! a.q.! 7.4.N.).                      7 8 h ; C 1 4 h C                       ",
"                                                < o j ! q.9.6.y.T.                      j 6 O +                                 ",
"                                                    < 6 G n ! G.G.                                                              ",
"                                                      j < 9 H W k <                                                             ",
"                                                      J 8 N h < 0 B                                                             ",
"                                                          G 4 7                                                                 "
};
