/* XPM */
static char *d4385c658ca847cbc808e6ec97955810JFmgYMgp4j890VfJ[] = {
/* columns rows colors chars-per-pixel */
"64 64 224 2 ",
"   c None",
".  c #010302",
"X  c #080504",
"o  c #0B0A05",
"O  c #02050B",
"+  c #08050A",
"@  c #050C0C",
"#  c #0B0C0D",
"$  c #020B05",
"%  c #110C0E",
"&  c #180806",
"*  c #0A120D",
"=  c #08150B",
"-  c #10110D",
";  c #080511",
":  c #060D13",
">  c #0B0C12",
",  c #0C0E18",
"<  c #120E13",
"1  c #130C19",
"2  c #0D1214",
"3  c #0E131A",
"4  c #0B1A1A",
"5  c #121215",
"6  c #1B1415",
"7  c #13151B",
"8  c #1A151C",
"9  c #151B1C",
"0  c #1A1B1D",
"q  c #161915",
"w  c #220A0A",
"e  c #28110D",
"r  c #330E13",
"t  c #2C1115",
"y  c #23141B",
"u  c #27171A",
"i  c #34191D",
"p  c #1B221F",
"a  c #19271B",
"s  c #0A221F",
"d  c #3D3213",
"f  c #0E1D24",
"g  c #0F1623",
"h  c #151521",
"j  c #1B1621",
"k  c #161B22",
"l  c #1A1C23",
"z  c #171B2A",
"x  c #1C1C2B",
"c  c #1B1729",
"v  c #1D1933",
"b  c #221E23",
"n  c #221E29",
"m  c #281A23",
"M  c #3B1926",
"N  c #241E33",
"B  c #0A262A",
"V  c #162323",
"C  c #1C2325",
"Z  c #1D222B",
"A  c #1D2929",
"S  c #192726",
"D  c #1D2331",
"F  c #1F2933",
"G  c #1D3A39",
"H  c #222325",
"J  c #2B2425",
"K  c #212925",
"L  c #22242C",
"P  c #2C262C",
"I  c #232B2C",
"U  c #2C2A2D",
"Y  c #362527",
"T  c #25312E",
"R  c #28382A",
"E  c #242434",
"W  c #2A2534",
"Q  c #252B33",
"!  c #2A2C35",
"~  c #24243C",
"^  c #2B253E",
"/  c #262C39",
"(  c #2B2C3C",
")  c #382B36",
"_  c #243333",
"`  c #2A3333",
"'  c #2C3A35",
"]  c #2D333A",
"[  c #2C3B3A",
"{  c #243738",
"}  c #343336",
"|  c #383137",
" . c #323B35",
".. c #33343B",
"X. c #333C3A",
"o. c #3A3D3B",
"O. c #3B353C",
"+. c #4A0D17",
"@. c #49131B",
"#. c #5C1319",
"$. c #710710",
"%. c #640A10",
"&. c #431E22",
"*. c #611122",
"=. c #4B212B",
"-. c #592426",
";. c #492932",
":. c #4A3035",
">. c #30521D",
",. c #2C4729",
"<. c #314420",
"1. c #2F403E",
"2. c #34423D",
"3. c #39413F",
"4. c #34542A",
"5. c #40433E",
"6. c #1C3947",
"7. c #2B2B43",
"8. c #272742",
"9. c #332B43",
"0. c #342E4C",
"q. c #3C2E49",
"w. c #2F3741",
"e. c #333443",
"r. c #333843",
"t. c #3A3C43",
"y. c #353C4C",
"u. c #393C4C",
"i. c #373549",
"p. c #343253",
"a. c #3A3C52",
"s. c #36335A",
"d. c #3D3C5C",
"f. c #3B3657",
"g. c #3B3963",
"h. c #483845",
"j. c #443658",
"k. c #433D63",
"l. c #483D63",
"z. c #2E4D46",
"x. c #334542",
"c. c #3C4441",
"v. c #3A4946",
"b. c #3C504B",
"n. c #3D4151",
"m. c #325652",
"M. c #3D4063",
"N. c #424543",
"B. c #424A43",
"V. c #444E4A",
"C. c #49464A",
"Z. c #46524E",
"A. c #494A54",
"S. c #4C5A56",
"D. c #475756",
"F. c #53585A",
"G. c #56534F",
"H. c #57625D",
"J. c #41615B",
"K. c #4A4A64",
"L. c #474466",
"P. c #525367",
"I. c #444475",
"U. c #494470",
"Y. c #514E7A",
"T. c #545772",
"R. c #57507B",
"E. c #59587A",
"W. c #4F5169",
"Q. c #615F61",
"!. c #635F7A",
"~. c #5D6C69",
"^. c #646265",
"/. c #6A6669",
"(. c #706D6E",
"). c #71706C",
"_. c #746B71",
"`. c #737072",
"'. c #7A757A",
"]. c #86050E",
"[. c #860814",
"{. c #980811",
"}. c #AF000B",
"|. c #A93B3F",
" X c #874548",
".X c #817C7C",
"XX c #5D558B",
"oX c #655B86",
"OX c #6D6597",
"+X c #746E90",
"@X c #787596",
"#X c #737985",
"$X c #837D84",
"%X c #847A9D",
"&X c #868284",
"*X c #8B8586",
"=X c #8B868A",
"-X c #8D8A8C",
";X c #8B8987",
":X c #918C8B",
">X c #958C8A",
",X c #938E92",
"<X c #998E90",
"1X c #8E959F",
"2X c #959394",
"3X c #9C9A9C",
"4X c #979698",
"5X c #85829F",
"6X c #A19A9A",
"7X c #A1A09E",
"8X c #8682AC",
"9X c #8E8BB0",
"0X c #9491B3",
"qX c #ABA5B4",
"wX c #ACA9CB",
"eX c #A9B0D3",
"rX c #BDB8E0",
"tX c #CABDEE",
"yX c #B8C5D3",
"uX c #C5C6DF",
"iX c #DBD4FB",
"pX c #E1D8FF",
"aX c #E8E8FF",
"sX c #F7F5FF",
/* pixels */
"                                                                                                                                ",
"                                                    ` ! W E D )  X                                                              ",
"                                          G.Q.V.` Q E ^ E E ^ 6.R.|.                                                            ",
"                                        _.<X<XC.v ( W E ( r./ Z M                                                               ",
"                                      /.(.`.A.D e.8.( e./ 7 3 Q @.Y                                                             ",
"                                    F.<X#X^.y.F E E ( Z ! r.A.A.{ [ 9 r.                                                        ",
"                                  6X4X'.'.yX4Xn.7.t.a.n.P.A.u.! c.$ 9 wXwX                                                      ",
"                                  :X3X7X4X1X#XF.S.P.A.r.9 8 O.2.$ . 9XaXsX%X                                                    ",
"                                  :X6X4X7X;X&X^.o.P 5 O 7 | 2.2 . !.rXuXwXXX^                                                   ",
"                                '.2X6X6X2X2X*X/.o.0 > > P X.a . ( aXwXl.OXs.@X9X                                                ",
"                                ;X:X,X2X2X'.^.A.| 6 O P o.T . 5 rXeX%XoXk.d.eX@X/                                               ",
"                            .XqX=X&X-X2X;X/.A.O.P 5 9 ) ` = . @XsX@Xj.oXp.@XT.v 7.                                              ",
"                              /.*X:X2X:X.X^.C.O.U J P Q C . K.iXiX%XR.g.E.L.~ p.0.                                              ",
"                              `.2X;X:X*X=X.X).Q.C.O.P Z . L tXiX%XY.g.L.d.7.f.g.(                                               ",
"                            ^.=X-X-X-X-X$X$X`.'.F.J H = $ 0XpX8XI.I.8.E ~ p.d.E l                                               ",
"                                3X3X2X*X.X*X=X$Xq.9 9 $ 8XsX0XI.I.0.h 7.8.s.x 8 a.x.                                            ",
"                                -X,X4X<X<X&X_.C.H A = Z +X9XXXI.p.* m j.f.p.# 5 q.i.                                            ",
"                                  X.D.N.t.! 0 q A V # L H @ I.M.s - < 9.f.7.2 6 * + n r.]                                       ",
"                                      7 7 9 q 9 9 k k C.c.0 D x i K . x ^ Z ..^ E * % W 9.y.                                    ",
"                                      , z C O q R a S t...h 4 +.-.s o 2 7 L l 7 ] ( l o n W.K.                                  ",
"                                    7 Y i * N e.>.4.a h Z B @.[.=.V # * 9 H 0 9 W ( Q j L W.T.K.n.                              ",
"                                  C 8 -.e D L.R >.<.q 9 B i [.[.*.H s 9 q I ' I 9 2 7 Q ! l a.OXT.a.                            ",
"                                  p y y 2 z 9 d ;.K G K +.$.[.[.@.{ ` C p T ` ` C 2 7 S S 5 > i.U.L.                            ",
"                                  K z : h , = :.q.I G Y {.{.].%.s T '  .A A w.` a s k j j 5 # $ 2 9.                            ",
"                                  8 j 5 g : a A e.I _ z.#.}.].V 1.' I  . .A _ _ C Z / x 5 5 X + * j u.                          ",
"                                K j 7 z , : ,.S ) A ' D.U %.;.m.b.v. .2.5. .S _ V z Z E j @ . , > 1 e.                          ",
"                                L < < 7 : k     L S [ v.G z.D.S.V.V.2. .Z.N.I G k 7 7 x x x Q Q L j 1                           ",
"                                a.E j x @       b U 3.X.A b.H.S.S.B.3.2.B.B.R C 9 3 7 h 7 e.        ` j                         ",
"                                k.d.p.c @       C ] B.` p 2.H.~.H.S.3.A 2.B.' p 9 9 h 3 ; r.                                    ",
"                                l.i.8., 3       _ t.5.K S [ v.S.J.b.' S ' B. .4 7 0 l @ > r.                                    ",
"                              i.^ 0.~ > A       ! } X.Q I 2.[ { ' 1.' S ` N.3.H 2 9 3 ; c a.                                    ",
"                              W 3 5 l 5         U H  .e I b.v.z.2.2.2.A U N.5.L 6 l 7 , c x.                                    ",
"                              x 7 @ 2 l           H U & o A x.b.z.x.2.I k c.C.H , 5 : , c                                       ",
"                            r.v x Z + 7           J J 5 $ + L [     H 5 h  .! h n 5 : 5 c                                       ",
"                              Z E x > +           l j ] ! W W l       % Z / k 7 3 i :.f h                                       ",
"                            0.x x h , +             > Z ] v.I         9 Z ] Z 7 . 8 ;.3 x                                       ",
"                            Q h , 3 + O             S > A 1.C         9 Z / z z C g : 3 E                                       ",
"                              1 . . >                 # h L l         2 F F z h Z M W g E                                       ",
"                              5 : O                   q 5 Z H     m < # F Z 7 5 . &.h.g E                                       ",
"                              C ; j               ! K l % C       u @ 3 S x t l : y m 3 !                                       ",
"                                + Q             Q 7 2 7 5 9     u # @ 7 6 t w u E z 4 7 Q                                       ",
"                                                6 0 9 9 9 7 9 Z 6 o # & t M r Y I 2 7 , Q                                       ",
"                                                0 7 n 9 7 9 6 ! z . . e &.i r X.S + 5 1 ]                                       ",
"                                                  7 x 0 S 9 6 ] ! C 9 t r w K J.7 . > , ]                                       ",
"                                                  x h 8 % > C x. .../ l 6 X _ D.9 5 2 1                                         ",
"                                                    S 2 > > I ' C x L Z p z     9 s m M                                         ",
"                                                      * 7 H L z 5 h l 6 C       5 : y &.                                        ",
"                                                        7 H S h h 9 5 q         < : u ;.                                        ",
"                                                          l H x 9 5 5         E # O u )                                         ",
"                                                            5 6 5 +           L 7 2 j (                                         ",
"                                                            * o o 0           l Z n y                                           ",
"                                                            - # -               , 2 z                                           ",
"                                                            < < I                                                               ",
"                                                            # 7                                                                 ",
"                                                          p : k                                                                 ",
"                                                          5 2 9 I I                                                             ",
"                                                        V 2 2 k l > `                                                           ",
"                                                      < 0 7 9 p 6 C C                                                           ",
"                                                    b < C 9 9 l 7 9 0                                                           ",
"                                                      # 5 < 8 Z z 2 C                                                           ",
"                                                     .5 + 6 L 7 5 L                                                             ",
"                                                  L 0 7 $ 6 j h                                                                 ",
"                                                  7 5 j h : O                                                                   ",
"                                                      Q j V                                                                     "
};
