/* XPM */
static char *_1b94d1a2f2c483394ce27460cb07dd0c7jVQhkR60X9REWx[] = {
/* columns rows colors chars-per-pixel */
"64 64 21 1 ",
"  c None",
". c #6A0000",
"X c #473B00",
"o c #5C4D00",
"O c #7A670A",
"+ c #8B0000",
"@ c #8C1E10",
"# c #AD0000",
"$ c #D60000",
"% c red",
"& c #84700E",
"* c #86720E",
"= c #937D13",
"- c #AC941D",
"; c #8E8128",
": c #B5A630",
"> c #C9AF2C",
", c #F2DB1E",
"< c #FFEC00",
"1 c #FFFC00",
"2 c #E6CB3C",
/* pixels */
"                                                                ",
"                                                                ",
"XXXXXXXXXXXXXXXXXXXXXXXXXXXXXXXXXXXXXXXXXXXXXXXXXXXXXXXXXXXXXXXX",
"X2:-:-:--:---------------------oO2:-:-:--:---------------------X",
"X12222>>>>>>>>>>>>>>>>>>>>>>>>-oO12222>>>>>>>>>>>>>>>>>>>>>>>>-X",
"X1<,22222222222222222222222222-O-1<,22222222222222222222222222-X",
"X1<<,,,,,,,,,,,,,,,,,,,,,,,,,,:O-1<<,,,,,,,,,,,,,,,,,,,,,,,,,,:X",
"X1<<<<<<<<<<<<<<<<<<<<<<<<<<<<:O-1<<<<<<<<<<<<<<<<<<<<<<<<<<<<:X",
"X1111111111111111111111111<11<:O-1111111111111111111111111<11<:X",
"X22222222>>>>>>>>>>>>>>>>>>>--=oO22222222>>>>>>>>>>>>>>>>>>>--=X",
"X2----------------------------=oO2----------------------------&X",
"X2----------------------------=oO2----------------------------&X",
"X2----------------------------=oO2----------------------------*X",
"X2--1<<,>&---&&&&&&&&&&&-1<>--=oO2--1<>-&&&&&&&&&&&---11<<,&--*X",
"X2--<>--&---&+########.>-<>&--=oO>--<>&-&+########+&---,>--&--*X",
"X>--<--&---&#%%%%%%%%%+>-<-&--=oO>--<-&-&#%%%%%%%$#+&--->--&--*X",
"X>--,-&---&#%%$$$$$$%%+>-<-&--=oO>--<-&-&#%%$$$$$%$+.>--->-&--*X",
"X>-->&--=-->+%%#####$%+>-<-&--=oO>--<-&-&#%$#####$#+>--=--&&--*X",
"X>--&----=-->+$%#####$+>-,-&--=oO>--,-&-&#%$####$#+>--=----&--*X",
"X;-----&--=-->+#$#####+>-,-&--=oO>--,-&-&#%$#####+>--=--&-----OX",
"Xo----&#&--=-->+######+>-,-&--=oO>--,-&-&#%$####+>--=--&#&----oX",
"Xo---&#%#&--=-->+#####+>-,-&--=oO>--,-&-&#%$#$#+>--=--&#%+&---oX",
"Xo--&+%%%#&--=-->+#$#$+>-,-&--=oO>--,-&-&#%$$#+>--=--&#%%#+>--oX",
"Xo--&#%$$%#&--=-->+#$$+>-2-&--=oO>--2-&-&#%%#+>--=--&#%$%#+>--oX",
"Xo--&#%$#$%#&--=-->+#$+>-2-&--=oO>--2-&-&#%#+>--=--&#%$#$#+>--oX",
"Xo--&#%$##$%#&--=-->+#+>->-&--=oO>-->-&-&##+>--=--&#%$####+>--oX",
"Xo--&#%$###$%#&--=-->++>->-&--=oO>-->-&-&#+>--=--&#%$#####+>--oX",
"Xo--&.%%$###$%#&--=-->+>->&o--=oO>-->&o-&+>--=--&#%$####$#+>--oX",
"X;--->+$%####$%#&--=-->-------=oO>------->--=--&#%$###$%#+>---OX",
"X>---->+#$####$%#&--=---&&&o--=oO>--&&&&---=--&#%%$$$$%#+>----*X",
"X>----->+#$$#$%%%#&----&1<<o--=oO>--&1<<&----&#%%%%%%%#+>-----*X",
"X>--1--->+########+&--&1>&&o--=oO>--o&&><&--&#########+>--->--*X",
"X>--<,--->++++++++.>-&1>&12&=-=oO>-=&12&>2&-&+++++++..>---,&--*X",
"X>--<>,--->>>>>>>>>--o<&<1<-o-=oO>-&<1<-o-o-->>>>>>>>>---,-&--*X",
"X>--<-->-------------o<&,<,-o-=oO>-&,<,-o-o-------------1--&--*X",
"X>--<---&-==========-o,&2,2-o-=oO>-&2,2-o-o-==========-1>--&--*X",
"X>--,--&-------------o2&>2>-o-=oO>-&>2>-o-o-------------,--&--*X",
"X>--,-&---&&&&&&&&&--o>o->-&o-=oO>-o->-&o-o--&&&&&&&&&--->-&--*X",
"X>--,&---&+######+.>-o-&o&&o=-=oO>-=o&&o&-o-&#########&---&&--*X",
"X>--&---&#%%%%%%%#+>-=o-&ooo=-=oO>-=ooo&-o=-&+#%%%%%%%#&---&--*X",
"X>-----&#%$$$$$%#+>---=o--&o--=oO>--o---o=--->+#%%$$$$%#&-----*X",
"X>----&#%$####$#+>--=--=oooo--=oO>--oooo=--=-->+#%$###$%#&----*X",
"X>---&#%$####$#+>--=--&-------=oO>-------&--=-->+#%$###$%#&---*X",
"X;--&+%$####$#+>--=--&@>-1<>--=oO>--1<>-&#&--=-->+#%$###$%+>--OX",
"Xo--&#%$###$#+>--=--&#.>-<>&--=oO>--<>&-&##&--=-->+#%$##$%+>--oX",
"Xo--&#%$##$#+>--=--&#%+>-<-&--=oO>--<-&-&#%#&--=-->+#%$##$+>--oX",
"Xo--&#%%#$#+>--=--&#%%+>-<-&--=oO>--<-&-&#%%#&--=-->+#%###+>--oX",
"Xo--&#%$##+>--=--&#%$%+>-<-&--=oO>--<-&-&#%%%#&--=-->+#%##+>--oX",
"Xo--&+$##+>--=--&#%$#$+>-,-&--=oO>--,-&-&#%$$%#&--=-->+#$#.>--oX",
"Xo--->.#+>--=--&#%$###+>-,-&--=oO>--,-&-&#%$#$%#&--=-->+#.>---oX",
"Xo---->.>--=--&#%$####+>-,-&--=oO>--,-&-&#%$##$$#&--=-->+>----oX",
"Xo----->--=--&#%$#####+>-,-&--=oO>--,-&-&#%$####$#&--=-->-----oX",
"X;--1----=--&#%$######+>-,-&--=oO>--,-&-&#%$#######&--=---->--OX",
"X>--<,--=--&#%%$#####$+>-2-&--=oO>--2-&-&#%%######$#&--=--,&--*X",
"X>--<>,---&@#$%%$###$#+>-2-&--=oO>--2-&-&#%%%$###$#+.>---,-&--*X",
"X>--,-->--->.#$$#####+.>->-&--=oO>-->-&-&#$$######+.>---1--&--*X",
"X>-->--->--->.+++++++..>->-&--=oO>-->-&-&.++++++++.>---1>--&--*X",
"X>--&&&&&&--->>>>>>>>>>>->&o--=oO>-->&o-&>>>>>>>>>>--->&&&&o--*X",
"X>=============================oO>============================*X",
"X>=============================oO>============================*X",
"X-*****************************oO-*****************************X",
"XXXXXXXXXXXXXXXXXXXXXXXXXXXXXXXXXXXXXXXXXXXXXXXXXXXXXXXXXXXXXXXX",
"                                                                ",
"                                                                "
};
