/* XPM */
static char *_c5f4b320de54ba7e6523ed4d9d0221c6TbpZyluBkTMlUVR[] = {
/* columns rows colors chars-per-pixel */
"64 64 17 1 ",
"  c None",
". c #3B201A",
"X c #54170B",
"o c #74200F",
"O c #5B4507",
"+ c #862A07",
"@ c #913500",
"# c #A64E19",
"$ c #A74F1A",
"% c #80610A",
"& c #A57D0E",
"* c #B25C27",
"= c #BD6934",
"- c #CA6D35",
"; c #CF7D4B",
": c #CA9911",
"> c #FFD500",
/* pixels */
"................................................................",
".=#############################################################.",
".-=***********************************************************#.",
".;-===========================================================*.",
".;-===========================================================*.",
".;-===========================================================*.",
".;-===========================================================*.",
".;-===========================================================*.",
".;-===========================================================*.",
".;-===========================================================*.",
".;-===========================================================*.",
".;-===========================================================*.",
".;------------------------------------------------------------=.",
".-;;;;;;;;;;;;;;;;;;;;;;;;;;;;;;;;;;;;;;;;;;;;;;;;;;;;;;;;;;;;=.",
".#@@@@@@@@@@@@@@@@@@@@@@@@@@@@@@@@@@@@@@@@@@@@@@@@@@@@@@@@@@@@+.",
".#@@@@@@@@@@@@@@@@@@@@@@@@@@@@@@@@@@@@@@@@@@@@@@@@@@@@@@@@@@@@+.",
".XXXXXXXXXXXXXXXXXXXXXXXXXXXXXXXXXXXXXXXXXXXXXXXXXXXXXXXXXXXXXX.",
".@ooooooooooooooooooooooooooooooooooooooooooooooooooooooooooooo.",
".#@@@@@@@@@@@@@@@@@@@@@@@@@@@@@@@@@@@@@@@@@@@@@@@@@@@@@@@@@@@@o.",
".#@@XXXXXXXXXXXXXXXXXXXXXXXXXXXXXXXXXXXXXXXXXXXXXXXXXXXXXXXX@@o.",
".#@@X####################o##o##Xo##o##o####################X@@o.",
".#@@X@@@@@@@@@@@@@@@@@@@@o++o@@Xo@@o++o@@@@@@@@@@@@@@@@@@@@X@@o.",
".#@@X@oooooooooooooooooo@o++o@@Xo@@o++o@oooooooooooooooooo@X@@o.",
".#@@X@o@@@@@@@@@@@@@@@@o@o++o@@Xo@@o++o@o@@@@@@@@@@@@@@@@o@X@@o.",
".#@@X@o@@@@@@@@@@@@@@@@o@o++o@@Xo@@o++o@o@@@@@@@@@@@@@@@@o@X@@o.",
".#@@X@o@@@@@@@@@@@@@@@@o@o++o@@Xo@@o++o@o@@@@@@@@@@@@@@@@o@X@@o.",
".#@@X@oo@@@@@@@@@@@@@@@o@o++o@@Xo@@o++o@o@@@@@@@@@@@@@@@oo@X@@o.",
".#@@&o@o@@@@@@@@@@@@@@@o@o++o@@Xo@@o++o@o@@@@@@@@@@@@@@@o@o&@@o.",
".#@oOX@o@@@@@@@@@@@@@@@o@o++o@@Xo@@o++o@o@@@@@@@@@@@@@@@o@XOo@o.",
".#@o&X@o@@@@@@@@@@@@@@@o@o++o@@Xo@@o++o@o@@@@@@@@@@@@@@@o@X&o@o.",
".#@o&X@o@@@@@@@@@@@@@@@o@o++o@@Xo@@o++o@o@@@@@@@@@@@@@@@o@X&o@o.",
".#@oOX@o@@@@@@@@@@@@@@@o@o++o@@Xo@@o++o@o@@@@@@@@@@@@@@@o@XOo@o.",
".#@@&o@o@@@@@@@@@@@@@@oo@oOOo@@Xo@@oOOo@oo@@@@@@@@@@@@@@o@o&@@o.",
".#@@X@oo@@@@@@@@@@@@@@o@@O:&O@@Xo@@O:&O@@o@@@@@@@@@@@@@@oo@X@@o.",
".#@@X@o@@@@@@@@@@@@@@@o@O:%%&O@Xo@O:%%&O@o@@@@@@@@@@@@@@@o@X@@o.",
".#@@X@o@@@@@@@@@@@@@@@o@oOOOOo@Xo@oOOOOo@o@@@@@@@@@@@@@@@o@X@@o.",
".#@@X@o@@@@@@@@@@@@@@@oo@O:&O@@Xo@@O:&O@oo@@@@@@@@@@@@@@@o@X@@o.",
".#@@X@o@@@@@@@@@@@@@@@@o@%>>%@@Xo@@%>>%@o@@@@@@@@@@@@@@@@o@X@@o.",
".#@@X@o@@@@@@@@@@@@@@@@o@%>:%@@Xo@@%>:%@o@@@@@@@@@@@@@@@@o@X@@o.",
".#@@X@o@@@@@@@@@@@@@@@@o@%::%@@Xo@@%::%@o@@@@@@@@@@@@@@@@o@X@@o.",
".#@@X@o@@@@@@@@@@@@@@@@o@%:&%@@Xo@@%:&%@o@@@@@@@@@@@@@@@@o@X@@o.",
".#@@X@o@@@@@@@@@@@@@@@oo@O&&O@@Xo@@O&&O@oo@@@@@@@@@@@@@@@o@X@@o.",
".#@@X@o@@@@@@@@@@@@@@@o@@OOOO@@Xo@@OOOO@@o@@@@@@@@@@@@@@@o@X@@o.",
".#@@X@o@@@@@@@@@@@@@@@o@O&%%&O@Xo@O&%%&O@o@@@@@@@@@@@@@@@o@X@@o.",
".#@@X@o@@@@@@@@@@@@@@@o@oO:&Oo@Xo@oO:&Oo@o@@@@@@@@@@@@@@@o@X@@o.",
".#@@X@oo@@@@@@@@@@@@@@o@@oOOo@@Xo@@oOOo@@o@@@@@@@@@@@@@@oo@X@@o.",
".#@@&o@o@@@@@@@@@@@@@@oo@oooo@@Xo@@oooo@oo@@@@@@@@@@@@@@o@o&@@o.",
".#@oOX@o@@@@@@@@@@@@@@@o@o++o@@Xo@@o++o@o@@@@@@@@@@@@@@@o@XOo@o.",
".#@o&X@o@@@@@@@@@@@@@@@o@o++o@@Xo@@o++o@o@@@@@@@@@@@@@@@o@X&o@o.",
".#@o&X@o@@@@@@@@@@@@@@@o@o++o@@Xo@@o++o@o@@@@@@@@@@@@@@@o@X&o@o.",
".#@oOX@o@@@@@@@@@@@@@@@o@o++o@@Xo@@o++o@o@@@@@@@@@@@@@@@o@XOo@o.",
".#@@&o@o@@@@@@@@@@@@@@@o@o++o@@Xo@@o++o@o@@@@@@@@@@@@@@@o@o&@@o.",
".#@@X@oo@@@@@@@@@@@@@@@o@o++o@@Xo@@o++o@o@@@@@@@@@@@@@@@oo@X@@o.",
".#@@X@o@@@@@@@@@@@@@@@@o@o++o@@Xo@@o++o@o@@@@@@@@@@@@@@@@o@X@@o.",
".#@@X@o@@@@@@@@@@@@@@@@o@o++o@@Xo@@o++o@o@@@@@@@@@@@@@@@@o@X@@o.",
".#@@X@o@@@@@@@@@@@@@@@@o@o++o@@Xo@@o++o@o@@@@@@@@@@@@@@@@o@X@@o.",
".#@@X@o@@@@@@@@@@@@@@@@o@o++o@@Xo@@o++o@o@@@@@@@@@@@@@@@@o@X@@o.",
".#@@X@oooooooooooooooooo@o++o@@Xo@@o++o@oooooooooooooooooo@X@@o.",
".#@@X@@@@@@@@@@@@@@@@@@@@o++o@@Xo@@o++o@@@@@@@@@@@@@@@@@@@@X@@o.",
".#@@XXXXXXXXXXXXXXXXXXXXXXXXXXXXXXXXXXXXXXXXXXXXXXXXXXXXXXXX@@o.",
".#@@o++++++++++++++++++++++++++++++++++++++++++++++++++++++o@@o.",
".#@@ooooooooooooooooooooooooooooooooooooooooooooooooooooooooo@o.",
".@ooXX....................................................XXXoo.",
".XXXXX.                                                  .XXXXX."
};
