/* XPM */
static char *a530997ce8824170d8e220043e87bbe0WZilMg3xsmaXTjLU[] = {
/* columns rows colors chars-per-pixel */
"64 64 227 2 ",
"   c None",
".  c #010102",
"X  c #0D0505",
"o  c #050B0B",
"O  c #0B0B0C",
"+  c #080609",
"@  c #18070A",
"#  c #0B130E",
"$  c #19110F",
"%  c #0C0D13",
"&  c #0C0D19",
"*  c #080711",
"=  c #130C12",
"-  c #120C1B",
";  c #180B14",
":  c #0D1314",
">  c #0F141B",
",  c #0B1815",
"<  c #131215",
"1  c #1A1315",
"2  c #161C16",
"3  c #14141B",
"4  c #1B141B",
"5  c #141A1C",
"6  c #1A1A1D",
"7  c #1A1B17",
"8  c #2B0A0C",
"9  c #390E09",
"0  c #230E14",
"q  c #22151D",
"w  c #251A1C",
"e  c #291619",
"r  c #381516",
"t  c #3C0A12",
"y  c #16221C",
"u  c #19231A",
"i  c #22371D",
"p  c #2D281F",
"a  c #151622",
"s  c #181524",
"d  c #161A21",
"f  c #1B1B24",
"g  c #1D1D2B",
"h  c #19182A",
"j  c #111223",
"k  c #231A22",
"l  c #271C27",
"z  c #351D24",
"x  c #261F35",
"c  c #3D1F37",
"v  c #1C2324",
"b  c #1C2A24",
"n  c #1D232A",
"m  c #172224",
"M  c #1D2432",
"N  c #222326",
"B  c #23252C",
"V  c #2D242C",
"C  c #232C2C",
"Z  c #2B2A2E",
"A  c #242724",
"S  c #31222B",
"D  c #38262A",
"F  c #28332E",
"G  c #232533",
"H  c #2B2634",
"J  c #252B32",
"K  c #2B2C33",
"L  c #272D3A",
"P  c #2A2A3B",
"I  c #28253B",
"U  c #342E33",
"Y  c #3C2E3C",
"T  c #352936",
"R  c #2B3433",
"E  c #2C3A35",
"W  c #2C323B",
"Q  c #2C3C3B",
"!  c #253337",
"~  c #32333C",
"^  c #333C3C",
"/  c #383738",
"(  c #5A1B19",
")  c #4C1719",
"_  c #740D13",
"`  c #57201E",
"'  c #4A192D",
"]  c #6F1B31",
"[  c #492426",
"{  c #432638",
"}  c #42363D",
"|  c #512D2E",
" . c #692629",
".. c #702C30",
"X. c #2B4C1D",
"o. c #33433C",
"O. c #3A463E",
"+. c #43473E",
"@. c #2E2D44",
"#. c #362B41",
"$. c #2E3644",
"%. c #323444",
"&. c #323B43",
"*. c #3C3D4C",
"=. c #383747",
"-. c #3B3B52",
";. c #3D3A5C",
":. c #393453",
">. c #2E3253",
",. c #453B43",
"<. c #493D4C",
"1. c #423C59",
"2. c #453A55",
"3. c #563046",
"4. c #463F63",
"5. c #642E49",
"6. c #2E4442",
"7. c #344445",
"8. c #3C4543",
"9. c #3D4B46",
"0. c #3B474A",
"q. c #3E4251",
"w. c #3F4A51",
"e. c #3E5350",
"r. c #3B5C63",
"t. c #434344",
"y. c #434B4B",
"u. c #454548",
"i. c #53484C",
"p. c #42534B",
"a. c #405146",
"s. c #494755",
"d. c #584C56",
"f. c #495854",
"g. c #5C555B",
"h. c #575756",
"j. c #654D5C",
"k. c #66595E",
"l. c #4C6759",
"z. c #536859",
"x. c #67615E",
"c. c #4B4666",
"v. c #5A5865",
"b. c #4D4B72",
"n. c #584D74",
"m. c #585377",
"M. c #51466A",
"N. c #655E64",
"B. c #6B5866",
"V. c #755C6B",
"C. c #5C696C",
"Z. c #6A6469",
"A. c #746A6E",
"S. c #76676D",
"D. c #6A667E",
"F. c #736B72",
"G. c #7A6D75",
"H. c #7B7478",
"J. c #6E7078",
"K. c #9C0000",
"L. c #940B0E",
"P. c #882537",
"I. c #8D2C30",
"U. c #B12838",
"Y. c #AA0629",
"T. c #DD001D",
"R. c #E30F3A",
"E. c #D82E39",
"W. c #9C2A44",
"Q. c #B62348",
"!. c #E53854",
"~. c #FB3965",
"^. c #82767B",
"/. c #837B7D",
"(. c #827575",
"). c #806F79",
"_. c #924B5C",
"`. c #87827F",
"'. c #645C85",
"]. c #6A6284",
"[. c #6B6781",
"{. c #73758A",
"}. c #6B6392",
"|. c #776C9B",
" X c #6E7496",
".X c #75708D",
"XX c #7C74A3",
"oX c #857E82",
"OX c #877A83",
"+X c #8279A4",
"@X c #E7528D",
"#X c #7B8D8E",
"$X c #8B8184",
"%X c #8D858A",
"&X c #8A8788",
"*X c #938A8B",
"=X c #938588",
"-X c #98918F",
";X c #848298",
":X c #958E93",
">X c #9E8E94",
",X c #969192",
"<X c #9B9294",
"1X c #9B9498",
"2X c #9E9A9A",
"3X c #A39C9B",
"4X c #A5989B",
"5X c #A3A09F",
"6X c #8A85A6",
"7X c #9793A8",
"8X c #938DB2",
"9X c #A89EA2",
"0X c #A899B3",
"qX c #ABA1A4",
"wX c #B5AEB9",
"eX c #A79EC1",
"rX c #ABA8CB",
"tX c #B3ACD4",
"yX c #BAB2DA",
"uX c #B2B4C6",
"iX c #BFC1E2",
"pX c #C6CBD8",
"aX c #CAC6E8",
"sX c #DCD8FB",
"dX c #CFCCF1",
"fX c #E5DEFF",
"gX c #E9EBFF",
/* pixels */
"                                                                                                  -                             ",
"                                                                                                = 4                             ",
"                                                                                      -.m.%.v . %                               ",
"                                                                                     Xm.P < . +                                 ",
"                                                                    uXgXpX        m. X$.O % . K                                 ",
"                                                                  tXaXsXfXyX].{.D.@.q.: : 6 *                                   ",
"                                                              z.J.;X7X0XyXrXaXfX+X.XrX[.W % .                                   ",
"                                                            B.G.k.z.-XJ.m.6XrXiXiXdXfXfXdX7X].                                  ",
"                                                    _.!.E.U.3.#.#.*.B.f.L 2.2.'.6X8X8XtXaXsXsXyXeX                              ",
"                                                    ~.Q.] P.c c H l g G 7.F.F.d.1.M.'.XX8X0XeXyXfX{.                            ",
"                                                    @X4.3.5.3.{ T H H P M L J.$X*.I 2.4.c.n.].6X].3 0.y.                        ",
"                                                    R.Q.] ' [ { Y =.Y @.@.@.&.&Xv.& l P :.c.n.n.s b s.s.                        ",
"                                                5.I.T.Y.] 3.' z c z Y c k @.g.pXpX8.. . 4 H 1.H 2 B H ~                         ",
"                                              I.E.I.] | j.V.B.d.j.<.s.s.s.d.N.;X7X*XZ.4 . O 6 B B B B                           ",
"                                              ..U. .g j.d.z { { x Y <.v.N.j.N.^.(./.1XH.&.! K K Z V ~                           ",
"                                                _  .0 l c @ ; 0 @ X 4 T ,.s.G.^.(.`.$XZ.} f.r.r.  7.                            ",
"                                                +.` 8 @ @ z q ; S w 4 S Y i.B.Z.Z.S.OXZ.8 _ [ ,.                                ",
"                                              O.p.U e @ = w 4 l U V k D } i.d.g.Z.F.OX{.C ) L.K.                                ",
"                                            y.x.(./.k.e X = = k V w p Y u.d.g.N.Z.A.H.:XC.r K.L.                                ",
"                                        O.} S.>XqX3X4X`.i.$ + * q N D } j.x.A.H.OXH.&X1X#XL._                                   ",
"                                        O.t.(.=X`.$X>X9XqX`.i.q q D } i.x.(.$X&XoXH.$X2X$Xz                                     ",
"                                          8.(.OXZ.G.=X=X4XwX3XF.<.} d.k.G.$X:X&X/.H.{.,X:X                                      ",
"                                            D t.g.$X=X(.4X9X3X3X:X&X`.$X*X$X%X&X&X2X-X$XN.                                      ",
"                                            F # / (.G.$X3X-X3X4XqX1X2X<X,X*X*X,X*X5XqXA.                                        ",
"                                            ^ F A F A.<X<X<X<X-X<XoX%X<X*X*X-X,X&X9XwX+..                                       ",
"                                            W F 9.o./ h.Z./.=X4X,X/.=X%X*X,X1X,Xs.d.F.u *                                       ",
"                                              R z.z.o.u C f.h.v.%X>X4XF.H.5X$Xi.: . + 0 a                                       ",
"                                              o.z.l.l.O.E F b , A.9XF.n A B.y.b Q q  .z . C                                     ",
"                                              J O.l.f.e.O.O.E u R t.F E O.0.7.6.&.D P. .. n                                     ",
"                                              : 2 O.e.e.9.a.9.J F A O.f.z.p.o.0.! h B Y W                                       ",
"                                            1 < 1 4 Z ^ o.9.E B 8.y.b 6.o.o.6.7.                                                ",
"                                          1 1 N Z k 4 4 w B b C a.y.C m Q 6.7.Q                                                 ",
"                                        g -.K C K B k H ~ J C F t.y.E y E 9.C :                                                 ",
"                                      f u.u.K B Z B K s.W > b y R y.t.A n C % . !                                               ",
"                                    n V -.G f N b B u.&.o X R 2 7 +.t.F j 4 % , u                                               ",
"                                    3 W P B D k n B E 5 0 [     . / 9.^ , 0 V j                                                 ",
"                                    3 H n S ( Y ;.1.d r  .|     . # E o./ O z = y                                               ",
"                                  ^ 3 n A ` ( { >.b.V 9 ) D     8 . o 2 A O 0 = *                                               ",
"                                  3 : K [ ..[ f @.%.w 9 l W     t z o o @ @ $ 1 3 G                                             ",
"                                  f &.q.` ..U R 6 < 6 4 :       e r e . X X 5 J 3 *                                             ",
"                                7.&.q.m r D U / n f f J         b @ r @ O > Z J f                                               ",
"                              J W -.W g f 6 D U *.H O J         R o 4 N L ~ ~ n                                                 ",
"                        W J J W $.W J ! 2 q ~ u.=.N               E 4 B M F 7.C J                                               ",
"                        B M L L Z n E G & N %.T k W                 3 3 d 5 J N J                                               ",
"                        8.W J W W W B h h Z R Z J R                   + 5 d a n Z                                               ",
"                          q.W w.w.G s g N ~ ~ B f 3                   v % d 3 n b                                               ",
"                          0.&.E q.I - g R Y B f f &                     O < f N f                                               ",
"                          &.R u E &.G l ~ K f f % f                       O = < 2                                               ",
"                        1.*.%.i X.E W B ~ f G @.                          u X % y                                               ",
"                      =.'.|.:.u i A 7 < < O P :.                            = 1 7                                               ",
"                      J }.+X@.B f + -.s.f @.4.:.*.                          u - 2                                               ",
"                        m.|.-.5 5 B c.XX'.m.m.I                               : <                                               ",
"                        2.}.n.#.P ~ L m.'.c.I + 5                             : : 5                                             ",
"                        W }.n.2.b.L f g J g f M & *                           & 3 3                                             ",
"                          |.m.2.>.B B 5 n G P g s 6                 u u f N v 5 < 5 5                                           ",
"                          +X|.1.G d L 3 g L I j n                 6 h f < 3 5 5 5 n 7 1                                         ",
"                          [.+Xb.P a $.a s x j d                   n 5 5 6 f n 6 2 f 1 1                                         ",
"                            +Xb.;.n L G d f 3 b                     J < 3 3 d B 4 < + m                                         ",
"                            XXn.@.3 M G h a 3 d                         f O & M N = o < N B                                     ",
"                        : d ].'.d 3 M M f 3 > -                               3 5 % 3 f f #                                     ",
"                      n % o v.|.L + g M g h 3 5                               < o : 3                                           ",
"                        6 o s.|.;.M g x x n #                                     n C                                           ",
"                          = U ].n.b.g #                                                                                         ",
"                              8.M.-.                                                                                            "
};
