/* XPM */
static char *b72abcb4e7724c51adc80ab894b57e38EUfXKmcStYHfxYqk[] = {
/* columns rows colors chars-per-pixel */
"64 64 13 1 ",
"  c None",
". c #0A0909",
"X c #12100F",
"o c #161412",
"O c #171616",
"+ c #1B211B",
"@ c #28211F",
"# c #33302F",
"$ c #393132",
"% c #643F31",
"& c #976B41",
"* c #EDA138",
"= c #F9CC33",
/* pixels */
"@@@@@@@oooooo@$$$$$@@$$$$$$$$$$$$$$$$$$@@$$$$$@oooooo@@@@@@@@.  ",
"@@@ooooo@@$$$oo%$$$$$$$@$$$$$%%$$$$$@$$$$$$$%oo$$$@@ooooo@@@..  ",
"ooo@@@@@@@@$$$o%%%$$$$$@@$$$%oo%$$$@@$$$$$%%%o$$$@@@@@@@@oooo.  ",
"$$$$$$$@@@$$$$oo@%%$$$$$$$%%@oo@%%$$$$$$$%%@oo$$$$@@@$$$$$$$o.  ",
"%&$$$$$$$$$$$$$ooo%&%%%$%%%@oooo@%%%$%%%&%ooo$$$$$$$$$$$$$&%o.  ",
"@$%&&&&&&&&&%%%%@ooo&&&%%%%@oooo@%%%%&&&ooo@%%%%&&&&&&&&&%$@oo  ",
"o@$%%%%%%%%@@@@@@oooo$$&&$@oooooo@$&&$$oooo@@@@@@%%%%%%%%$@ooo  ",
"ooo@$$$$$$$$$$@@oo@oo@@$$@@oooooo@@$$@@oo@oo@@$$$$$$$$$$@ooooo  ",
"o@@@@@$$$$$$$$$$$$$$$@@@@@@@$$$$@@@@@@@$$$$$$$$$$$$$$$@@@@@ooo  ",
"oo@@@@@@@@@@@@ooooooo@@@@@@@@$$@@@@@@@@ooooooo@@@@@@@@@@@@oo$$  ",
"$$$$$$$$@@@oooo@@ooooo@@@@@$$$$$$@@@@@ooooo@@oooo@@@$$$$$$$$$$  ",
"%%%%%%%$$$$$$..@@@oooo$$$$$$$%%$$$$$$$oooo@@@..$$$$$$%%%%%%%$$  ",
"%%%%%oooooo...@@@ooo%%$$$$$$%%%%$$$$$$%%ooo@@@...oooooo%%%%%%%  ",
"&%%@@ooo@@....ooo@@$$&%%%%%%%%%%%%%%%%&$$@@ooo....@@ooo@@%%&&&  ",
"$@@@oooo@....oo@@$$$$$&&&%%%%@@%%%%&&&$$$$$@@oo....@oooo@@@$$$  ",
"$@@oo@ooo..@@@$$$$$@oo$$$$$@@oo@@$$$$$oo@$$$$$@@@..ooo@oo@@$$$  ",
"@@oo@@oo%%%%$$$@@@@ooo@@@@@@@oo@@@@@@@ooo@@@@$$$%%%%oo@@oo@@$$  ",
"@@@@@@o%%%%%%%ooooooooo@@@@oooooo@@@@ooooooooo%%%%%%%o@@@@@@@$  ",
"@@@.&&&&&&%%%%%$$%%%$$oo@@@oooooo@@@oo$$%%%$$%%%%%&&&&&&.@@@@@  ",
"@@...***&&&&&&&&$%%%$$%%%$%%%oo%%%$%%%$$%%%$&&&&&&&&***...@@@.  ",
"oo.%%%%%**&&&&&&&&&&&&&&%$$%%%%%%$$%&&&&&&&&&&&&&&**%%%%%.ooo.  ",
"oo.$$@%%%%%&&%%&&&&&%%&&&%&%&&&&%&%&&&%%&&&&&%%&&%%%%%@$$.ooo.  ",
"o*&&$@@%%%%&&%%%&&&&&&&&&&&&&&&&&&&&&&&&&&&&%%%&&%%%%@@$&&*ooo  ",
".&**&&&&&&&&&&%&&&&===****&&&@@&&&****===&&&&%&&&&&&&&&&**&.oo  ",
".@$%*******&&&&&&&&%%%$$$$@@oooo@@$$$$%%%&&&&&&&&*******%$@...  ",
"..o$%%%$$%%%%%%$$$$%%%$$$@@oooooo@@$$$%%%$$$$%%%%%%$$%%%$o...o  ",
"..oo$$%o%%%%$$$%$$$%%$$$$@oooooooo@$$$$%%$$$%$$$%%%%o%$$oo..oo  ",
"@@o@$$%o$%o$$$$%%$$$$$$$@@oooooooo@@$$$$$$$%%$$$$o%$o%$$@o@@@o  ",
"@.o@$$@o$$@$$oo%%%$$$%%$@oooooooooo@$%%$$$%%%oo$$@$$o@$$@o.@@o  ",
"o.o@@@oo$$@@oo$$%%$$%%%$@oo@@oo@@oo@$%%%$$%%$$oo@@$$oo@@@o.ooo  ",
"o.oo@@oo$$@@$$$@@$$$%%$@@oo@@oo@@oo@@$%%$$$@@$$$@@$$oo@@oo.o@@  ",
"...o@ooo$@@@ooo@@@@@$$$@@oo@@oo@@oo@@$$$@@@@@ooo@@@$ooo@o...@@  ",
"....oooo@@ooooooo@ooooo...o@@oo@@o...ooooo@ooooooo@@oooo....@@  ",
"......$$$$$$$@oooooooooo...oooooo...oooooooooo@$$$$$$$........  ",
"$...$$$$$%%@$$@@@@@@@$$$$$$$oooo$$$$$$$@@@@@@@$$@%%$$$$$...$$$  ",
"$$$$$%%%%%@@@$$$$$$$$@%%%%%$$$$$$%%%%%@$$$$$$$$@@@%%%%%$$$$$$$  ",
"$$%%%%%%oo@@@@@.$$$$@@@%%%%%$$$$%%%%%@@@$$$$.@@@@@oo%%%%%%$$$%  ",
"%%%%%%$oooooooo.@%%%%%%%%%$oooooo$%%%%%%%%%@.oooooooo$%%%%%%%%  ",
"&&&@@o@@oooo%$$$$&&&%%%%%%%$o%%o$%%%%%%%&&&$$$$%oooo@@o@@&&&&%  ",
"&$@@@o@@%%%%%&$&&&&&&%%%%&&&oooo&&&%%%%&&&&&&$&%%%%%@@o@@@$&&&  ",
"$$$@@$%%%&&&&&&&&&&&&&%%&&%%%%%%%%&&%%&&&&&&&&&&&&&%%%$@@$$$@o  ",
"@$$@@$%&&&&%%&&%%%&&&&&&&%%%%%%%%%%&&&&&&&%%%&&%%&&&&%$@@$$@oo  ",
"@@$$@&&&%&&%%%&&%%%%%&&&&%%%%%%%%%%&&&&%%%%%&&%%%&&%&&&@$$@@oo  ",
"..oo@&&&&&&&&&&&&%%%%%&&&%%%%%%%%%%&&&%%%%%&&&&&&&&&&&&@oo....  ",
"oo@@@%%*******&&&&&%%%&&&&&&&oo&&&&&&&%%%&&&&&*******%%@@@ooo.  ",
"@@@@oo$%%%%==*****&&&&&&&&&&oooo&&&&&&&&&&*****==%%%%$oo@@@@@$  ",
"@@@@@o$$$%%%%%====****==*&&oo..oo&&*==****====%%%%%$$$o@@@@@$$  ",
"$$$@@oo$$%%%%%%@@@@$$$@@@oooo..oooo@@@$$$@@@@%%%%%%$$oo@@$$$%%  ",
"%%$$@@oo$%%$@@@@$$@@$$@@oooo@@@@oooo@@$$@@$$@@@@$%%$oo@@$$%%$$  ",
"$%%%$$oo$$$$@%@@$$@@$$@@ooo@@@@@@ooo@@$$@@$$@@%@$$$$oo$$%%%$$@  ",
"$@@@@ooo$$$$@%%@$$@@@@@oooo@@..@@oooo@@@@@$$@%%@$$$$ooo@@@@$$.  ",
"$@@@ooo..$$$@%%$@$$@@..ooo........ooo..@@$$@$%%@$$$..ooo@@@$$.  ",
"$@oooooo...o@%%$@$$@..oooooo....oooooo..@$$@$%%@o...oooooo@$$.  ",
"$@oo.@oooo.oo@$$@@@@.oooooooo@@oooooooo.@@@@$$@oo.oooo@.oo@$@.  ",
"@@o..@@@oooooo$$$@@@.oo@@@@@@..@@@@@@oo.@@@$$$oooooo@@@..o@@@.  ",
"$$$$$$$$$@@ooo@$$@@ooo@@@@@@$..$@@@@@@ooo@@$$@ooo@@$$$$$$$$$$$  ",
"%%%$$$$$$$@@@@@@@@o%$$$$$$$$....$$$$$$$$%o@@@@@@@@$$$$$$$%%%%.  ",
"@@%%%%%%$$$$$$$$oooo$%%%%$@......@$%%%%$oooo$$$$$$$$%%%%%%@@..  ",
"@.@@@@@@@%%$ooo.oooooo@@@@........@@@@oooooo.ooo$%%@@@@@@@.@@+  ",
"++X@@@@@@@ooo...........@@.XX..XX.@@...........ooo@@@@@@@X++++  ",
"+++X@@@@@oo.......oo.Xoo...XX..XX...ooX.oo.......oo@@@@@X+++##  ",
"##+++o@@........XOOOOOOOOOO......OOOOOOOOOOX........@@o+++####  ",
"###++++XX+XX++++++++++O...OOXXXXOO...O++++++++++XX+XX++++#####  ",
"####+++++++++++++++++++.....XXXX.....+++++++++++++++++++######  "
};
