/* XPM */
static char *de745fb7612345398c306bb91cd17c53gMUGK5Z8P4iyL5MP[] = {
/* columns rows colors chars-per-pixel */
"32 32 8 1 ",
"  c #161412",
". c #0A0909",
"X c #393132",
"o c #28211F",
"O c #643F31",
"+ c #976B41",
"@ c #EDA138",
"# c white",
/* pixels */
" ....XXXooooXXoooXXXo.XXOXXXXXXX",
"o  .XXXXXXXXXXoooXXXXX.XOOOXXXXX",
"oo XXOXXXXXXXXXooXXXXX..XOOOOOOO",
"XX  XOOXXXXXXXXXXXXXXXO..XX+++OO",
"XO  oXO+OXXXXXXXXXXXOOOXXooooooo",
"O    oXO+OOOOOOOOOOOO+Oooo..ooo.",
"o   ..ooX++++++OO++++Xoo...  ...",
"     ...oXOOOOO++++XXoo...   .o ",
"  XX  .....oXXXOOOOoo       oooo",
"  XXXo    ..oooooo        oooo  ",
"  oXXXX                 oooo    ",
"XXXooXooo             oooo      ",
"oXXXXooXoooo        oooooo XXXXX",
"XXXXXXXXXooooooooooooooXXXXXXXXX",
"XOOOOOOOOXXXXXXXooXXXXXXXXXOOOOO",
"OOOOO+++OOXXXXXooXXXXXXXXXO++ XO",
"OOOO   X++OOOOooXXXXXOOOO++X   X",
"Oo...   XXX+++ooOOOO++++OX    oo",
"o ...  oooooooooooXXXXXX   ooooo",
"o ... XXXXXXXooooooooooooXXXXXXo",
"  ... OOOXXXXXXX  XXXXXXXXOOXOoo",
"  ..  oO+OOOOOOX  XXXXXOOOOOoooo",
"O .. oooo++OOooo  XOOO++ooooooo ",
"OOOO    oXooooo   oXoooooooooooO",
"++OOOO   Xooooooo  oooooo    OOO",
"+++++OOOOOOXXXXXXXXXX  OOOOOOO+X",
"+o. X++OOOOOOOOOXXXO  O++++++XXX",
"    ooX+++++++++++O ++@@@@XXXXoo",
"    oooX++++@@@@@@  XXXXXXXXoooo",
"    oooXXOOOOOXXo    oXXXXXoooo ",
"  .  oooXXOOooooo.   ooXXXXoooo ",
"  .. ooXXXOooooo...    ooooooo ."
};
