/* XPM */
static char *d99e1931f77f4a898effa0a1e1d68ec3vuspuQJtYW411hPP[] = {
/* columns rows colors chars-per-pixel */
"64 64 230 2 ",
"   c None",
".  c #020303",
"X  c #030B0B",
"o  c #0C0C0C",
"O  c #060909",
"+  c #130C0D",
"@  c #190D0B",
"#  c #140505",
"$  c #0A110D",
"%  c #13150D",
"&  c #0D0F12",
"*  c #140F12",
"=  c #1D0C11",
"-  c #0C1214",
";  c #071718",
":  c #141315",
">  c #1B1314",
",  c #14141B",
"<  c #1A161B",
"1  c #151A1C",
"2  c #1A1A1D",
"3  c #151A16",
"4  c #230B0D",
"5  c #280709",
"6  c #330D0C",
"7  c #2E110E",
"8  c #231316",
"9  c #2C1515",
"0  c #24161B",
"q  c #241A1C",
"w  c #2C1B1E",
"e  c #2B151B",
"r  c #341415",
"t  c #34151A",
"y  c #341A1C",
"u  c #3B1C1C",
"i  c #391718",
"p  c #2C1011",
"a  c #17221C",
"s  c #20241E",
"d  c #081E23",
"f  c #151621",
"g  c #151B22",
"h  c #1A1C23",
"j  c #161E2C",
"k  c #1C1D29",
"l  c #1A1721",
"z  c #1A1E32",
"x  c #221B24",
"c  c #281D25",
"v  c #341C23",
"b  c #371D26",
"n  c #281C31",
"m  c #1C2224",
"M  c #1C222A",
"N  c #192727",
"B  c #1D332C",
"V  c #1D2333",
"C  c #072623",
"Z  c #222326",
"A  c #292325",
"S  c #23252C",
"D  c #2B242B",
"F  c #232A2D",
"G  c #2C282B",
"H  c #36242A",
"J  c #23342D",
"K  c #2A352F",
"L  c #232533",
"P  c #2A2632",
"I  c #252B34",
"U  c #2B2C33",
"Y  c #2B2C3C",
"T  c #28243B",
"R  c #352B33",
"E  c #322B3D",
"W  c #372B39",
"Q  c #253130",
"!  c #2B3534",
"~  c #2A3A32",
"^  c #2C343C",
"/  c #253B36",
"(  c #35353A",
")  c #3A343D",
"_  c #363939",
"`  c #430815",
"'  c #46181A",
"]  c #571B18",
"[  c #430003",
"{  c #641D1D",
"}  c #720007",
"|  c #4B211E",
" . c #70231F",
".. c #581A35",
"X. c #501124",
"o. c #601E3C",
"O. c #4A2225",
"+. c #482527",
"@. c #592626",
"#. c #472238",
"$. c #493537",
"%. c #523437",
"&. c #72262E",
"*. c #2D413B",
"=. c #32433A",
"-. c #36493B",
";. c #374338",
":. c #2E2C42",
">. c #322D43",
",. c #362849",
"<. c #2E3341",
"1. c #2F3B46",
"2. c #333345",
"3. c #343B44",
"4. c #3B3C4C",
"5. c #36384A",
"6. c #3C3D55",
"7. c #3E3E5B",
"8. c #383556",
"9. c #5A2644",
"0. c #443A48",
"q. c #423C5B",
"w. c #463D5A",
"e. c #5C3552",
"r. c #753150",
"t. c #3B4D44",
"y. c #3A414B",
"u. c #364644",
"i. c #3A5348",
"p. c #3C4151",
"a. c #3B4752",
"s. c #3F4462",
"d. c #4D4A4E",
"f. c #464547",
"g. c #47584C",
"h. c #434155",
"j. c #43445C",
"k. c #454A5C",
"l. c #4B4959",
"z. c #534958",
"x. c #4B5655",
"c. c #585C5B",
"v. c #535658",
"b. c #4C6657",
"n. c #4D6B56",
"m. c #4D4B6B",
"M. c #484766",
"N. c #4C5365",
"B. c #515366",
"V. c #545A65",
"C. c #55536D",
"Z. c #585C6C",
"A. c #5B5D7B",
"S. c #595876",
"D. c #534D6F",
"F. c #635F62",
"G. c #625E7C",
"H. c #5F6769",
"J. c #5C6370",
"K. c #517666",
"L. c #696568",
"P. c #73696D",
"I. c #757173",
"U. c #7A7176",
"Y. c #7B767B",
"T. c #66717A",
"R. c #932E32",
"E. c #A23439",
"W. c #8E3147",
"Q. c #C1394E",
"!. c #B84644",
"~. c #80767D",
"^. c #D94E69",
"/. c #5F5682",
"(. c #665C89",
"). c #5F6288",
"_. c #646283",
"`. c #65638B",
"'. c #666C8A",
"]. c #686785",
"[. c #706A87",
"{. c #6D6A93",
"}. c #736C95",
"|. c #766E99",
" X c #6D7294",
".X c #7D729D",
"XX c #7A7698",
"oX c #7F7D80",
"OX c #7B75A4",
"+X c #837E82",
"@X c #887E85",
"#X c #847A9D",
"$X c #9A6791",
"%X c #857CA3",
"&X c #8679A5",
"*X c #8D7FB2",
"=X c #C9678F",
"-X c #7F80A2",
";X c #8B8485",
":X c #8B868A",
">X c #8E8B8C",
",X c #848384",
"<X c #928D8E",
"1X c #908588",
"2X c #968E93",
"3X c #959393",
"4X c #9D9799",
"5X c #8D9190",
"6X c #A29E9E",
"7X c #A1A09F",
"8X c #8883A8",
"9X c #888BB0",
"0X c #9689B5",
"qX c #9B92B9",
"wX c #9092B9",
"eX c #8F8EAE",
"rX c #A29CA1",
"tX c #A5A4A4",
"yX c #9F98C1",
"uX c #A494C4",
"iX c #A9A7CB",
"pX c #B2AED3",
"aX c #B8B7D9",
"sX c #AFB3C2",
"dX c #BFBCE2",
"fX c #C4BCE6",
"gX c #D9D9F6",
"hX c #CEC6F3",
"jX c #E5DBFF",
"kX c #EBEBFF",
/* pixels */
"                                                                        x.                                                      ",
"                                                                    hXpXS                                                       ",
"                                                                  dXhXeXL                                                       ",
"                                  :._                           hXjX0X,.Z                                                       ",
"                                    >.                        qXkXuX/.Z.                                                        ",
"                                    ,.2.                    [.dXaXS.B.5XJ.                                                      ",
"                                    w.n                   m.pXjX.Xh.2.z y.1X                                                    ",
"                                    ,.,.^               sXgXaX%Xz.y.V L z V.~.L.Y.,XU.                                          ",
"                                    3.q.`.:.:           kXgXqX2.c.I E W V <.U.,X>X3XrXL.                                        ",
"                                    p.7.).'.x , 3.!   }.pXiXv.d.c.b r.9.#.U L.I.Y.Y.5X4X3X                                      ",
"                                    h.T.N.'.k.. k . 4.OX#XL.t.;Xz.#.W.o.o.R v.I.oXoX5X3X<X                                      ",
"                                    k.8XC.A.'.h.L <.XX0Xx.-.P.3Xd.#.Q.R.r.0.c.I.:X:X:X3X,X                                      ",
"                                    y.A.].'.wX9XC.iXiX8Xy._ ;X5X#.9.^.W.W.2.H.I.+X+X>X1X6X1X                                    ",
"                                      A.].V m.9XA.eXeX8Xm.F ;X,Xc ..=X$Xr.U v.L.P.;X3X3X;XU.                                    ",
"                                      A.Z.T ,   A.-XqXiXD.m c.x.f [ W.e.` ( d.d.P.5X5X;X;X                                      ",
"                                      N.S.s.    T {.w.B.M.Z Z o d ` } # n ( R 0.Y.tX3X,X4X2X                                    ",
"                                      N.A.6.      M.M.8.:.; - X l X.R.b N < _ ,XtX6X6X4XP.                                      ",
"                                      M.).8.      V OX/.B a 4 > = X.X.= X $.>X7X>X<X2X2X                                        ",
"                                      k. Xm.    1 *.J.i.;.| 3 % O ; ; $ f.>XtX;XI.I.L.f.                                        ",
"                                      V.8X4.    *.i.b.g.&.u C ; # # 2 v.;X3X<X;XU.d.                                            ",
"                                      h.1.h h N *.-./ @.E.O.w r 9 1 B ) Y.Y.0.d.d.                                              ",
"                                      6.:.A.F . : m 0 R.!.R.{ $.^ g N K ) f.=.~ J                                               ",
"                                    k. X X Xh.- q R R  .R.@.g.b.g.3.U F *.-.=.=.t.u.                                            ",
"                                    h.C.N.M.7.j W y R w 6 a K.b.x.g.k.! K J ! b.b.*.                                            ",
"                                    : < , : h P R 8 b ) L F g.t.-.=.N m N ~ g.n.g.                                              ",
"                                    2.p.2.5.V H r c u y R I t.-.B m $ $ N -.t.~ S                                               ",
"                                    5.M.5.2.6.b 6 D R w c u ;.t.N 1 a Q ! F < # h                                               ",
"                                    ^ L T 8.z.' @ D <.S 2 ' r J B ~ ^     < + 2 P                                               ",
"                                    B.) _ /.P 7 8 x M , y 6 # Z u.K Q     ^ A U U                                               ",
"                                    C.0.h.D.h 0 q N 1 e ] 9 o , / N 2       G R F                                               ",
"                                    3.S h.M.k < 1 L Z c 8 > > r G ; - N     F _ P 2.                                            ",
"                                      Z E m.f + 2 U S 1 < 8 u ] y N         , R Z T                                             ",
"                                      %X(.M.> $ 2 U Z : < u ] 6 a           m < 2 ,                                             ",
"                                    J.qX%XM.K < , N h : 9 u q k ,             O : A R                                           ",
"                                    Z.#X}.M.S + : - - : 8 O j Y l             , 1 U H                                           ",
"                                    V.A.}.6.h o , - & o X 3 , S L k N         , a F A 3.                                        ",
"                                      _.|.2.: 2 - o * o 3 A > Z L M +.%.        X = x y.                                        ",
"                                      %X|.:.o < , + O O 3 > G 4.M +. .{         U e 0 !                                         ",
"                                      XX}.8.< > * O o : : + p.a.j c ' u         y.y.x S                                         ",
"                                      |._.q.w # + + t t X 1 4.4.S D +.          I p.3.G                                         ",
"                                      }.).0.O.t v u t = , Z E 4.L @. .%.        I <.3.Q                                         ",
"                                      _.).>.' +.t 4 @ : : < S ^ L ' ] v         L I ^ <.I                                       ",
"                                      A.`.>.v b     G > , h h L g U             V n ^ V I 3.                                    ",
"                                      S.G.6.T 3.        + < h m : U             I k 3.Q J.V.                                    ",
"                                      C.A.>.Y           x + 2 1 e q             M U 3.3.T.V.                                    ",
"                                      h.S.2.            I + - > t M             M ^ 3.^ y.4.                                    ",
"                                                        4 O @ r 6               k <.^ 4.p.w.                                    ",
"                                                      ) 5 @ i u 7 y           f L L I M }.OXm.                                  ",
"                                                      A i e r 9 t D             k L L 8.(.*X|.                                  ",
"                                                      > 9 y y O.u               V k L w.(.OX[.                                  ",
"                                                    j q < b +.+.y                 f h T {.&X|.                                  ",
"                                                  M : : M > @.+.                  - f >.(.uX8X                                  ",
"                                                M : h 3 2 l e                     g f V D.qX#X                                  ",
"                                                I : 2 , > S N                       k , q.8XXX                                  ",
"                                                  S N   2 : F                         z M.&X&X                                  ",
"                                                        m ,                             l.#X[.                                  ",
"                                                      m h h                               p.                                    ",
"                                                      1 , m                                                                     ",
"                                                      a g h                                                                     ",
"                                                      3 n h a                                                                   ",
"                                                    2 l M S ,                                                                   ",
"                                                    k < A S ,                                                                   ",
"                                                    M O h 3                                                                     ",
"                                                      . , ,                                                                     "
};
